<?xml version="1.0" encoding="UTF-8" standalone="no"?>
<!-- Generator: Adobe Illustrator 16.0.4, SVG Export Plug-In . SVG Version: 6.00 Build 0)  -->

<svg
   xmlns:dc="http://purl.org/dc/elements/1.1/"
   xmlns:cc="http://creativecommons.org/ns#"
   xmlns:rdf="http://www.w3.org/1999/02/22-rdf-syntax-ns#"
   xmlns:svg="http://www.w3.org/2000/svg"
   xmlns="http://www.w3.org/2000/svg"
   xmlns:sodipodi="http://sodipodi.sourceforge.net/DTD/sodipodi-0.dtd"
   xmlns:inkscape="http://www.inkscape.org/namespaces/inkscape"
   version="1.1"
   id="Layer_1"
   x="0px"
   y="0px"
   width="196.779px"
   height="141.639px"
   viewBox="0 0 196.779 141.639"
   enable-background="new 0 0 196.779 141.639"
   xml:space="preserve"
   sodipodi:docname="browser.svg"
   inkscape:version="0.92.2 (5c3e80d, 2017-08-06)"><metadata
     id="metadata1800"><rdf:RDF><cc:Work
         rdf:about=""><dc:format>image/svg+xml</dc:format><dc:type
           rdf:resource="http://purl.org/dc/dcmitype/StillImage" /></cc:Work></rdf:RDF></metadata><defs
     id="defs1798" /><sodipodi:namedview
     pagecolor="#ffffff"
     bordercolor="#666666"
     borderopacity="1"
     objecttolerance="10"
     gridtolerance="10"
     guidetolerance="10"
     inkscape:pageopacity="0"
     inkscape:pageshadow="2"
     inkscape:window-width="1920"
     inkscape:window-height="1034"
     id="namedview1796"
     showgrid="false"
     showguides="true"
     inkscape:guide-bbox="true"
     inkscape:zoom="2.3563735"
     inkscape:cx="14.558719"
     inkscape:cy="130.23284"
     inkscape:window-x="0"
     inkscape:window-y="0"
     inkscape:window-maximized="1"
     inkscape:current-layer="Layer_1"><sodipodi:guide
       position="1.5914285,142.27371"
       orientation="1,0"
       id="guide2393"
       inkscape:locked="false" /><sodipodi:guide
       position="1.5914285,139.99266"
       orientation="0,1"
       id="guide2395"
       inkscape:locked="false" /><sodipodi:guide
       position="211.55826,139.99266"
       orientation="0,1"
       id="guide2412"
       inkscape:locked="false" /><sodipodi:guide
       position="202.55578,138.11303"
       orientation="0,1"
       id="guide2414"
       inkscape:locked="false" /></sodipodi:namedview><g
     id="g1793"><g
       id="g1759"><path
         d="M 196.779,12.975 H 0 V -0.11433318 C 8.054,0 3.606,0 8.054,0 h 180.672 c 4.448,0 0,0 8.47838,0.0978573 L 196.78,12.975 Z"
         id="path1757"
         inkscape:connector-curvature="0"
         style="fill:#53676c"
         sodipodi:nodetypes="cccssccc" /></g><rect
       y="12.975"
       fill="#04A6DF"
       width="196.779"
       height="128.664"
       id="rect1761"
       style="fill:#2a7fff" /><g
       id="g1765"><path
         fill="#FFFFFF"
         d="M72.544,101.442c-1.21,0-2.421-0.461-3.345-1.385L49.793,80.651c-1.847-1.847-1.847-4.842,0-6.689    l19.406-19.406c1.847-1.848,4.843-1.848,6.689,0c1.848,1.848,1.848,4.842,0,6.689L59.827,77.307l16.062,16.061    c1.848,1.847,1.848,4.842,0,6.689C74.965,100.981,73.755,101.442,72.544,101.442"
         id="path1763" /></g><g
       id="g1769"><path
         fill="#FFFFFF"
         d="M88.762,110.169c-0.507,0-1.024-0.082-1.531-0.256c-2.472-0.846-3.789-3.535-2.943-6.007l19.254-56.263    c0.847-2.472,3.537-3.789,6.008-2.944c2.472,0.846,3.79,3.536,2.943,6.007L93.238,106.97    C92.564,108.934,90.729,110.169,88.762,110.169"
         id="path1767" /></g><g
       id="g1773"><path
         fill="#FFFFFF"
         d="M124.235,101.442c-1.211,0-2.422-0.461-3.345-1.385c-1.848-1.847-1.848-4.842,0-6.689l16.062-16.061    l-16.062-16.062c-1.848-1.847-1.848-4.842,0-6.689c1.847-1.848,4.842-1.848,6.689,0l19.406,19.406    c1.847,1.847,1.847,4.842,0,6.689l-19.406,19.406C126.656,100.981,125.445,101.442,124.235,101.442"
         id="path1771" /></g><g
       id="g1777" /><g
       id="g1781" /><g
       id="g1785" /><rect
       x="1.5914285"
       y="8.3320084"
       width="7.5009999"
       height="1.21"
       id="rect1787"
       style="fill:#ffffff" /><rect
       x="1.6330559"
       y="3.8319046"
       width="7.5009999"
       height="1.21"
       id="rect1789"
       style="fill:#ffffff" /><rect
       x="1.6330564"
       y="6.0387144"
       width="7.5009999"
       height="1.21"
       id="rect1791"
       style="fill:#ffffff" /></g><path
     inkscape:connector-curvature="0"
     style="fill:#ffffff"
     d="m 193.68483,6.067499 c 0,1.355 -1.1,2.455 -2.455,2.455 -1.355,0 -2.455,-1.1 -2.455,-2.455 0,-1.355 1.1,-2.455 2.455,-2.455 1.355,0 2.455,1.099 2.455,2.455"
     id="path1775" /><path
     inkscape:connector-curvature="0"
     style="fill:#ffffff"
     d="m 186.78077,6.0766734 c 0,1.355 -1.1,2.4550001 -2.455,2.4550001 -1.355,0 -2.455,-1.1000001 -2.455,-2.4550001 0,-1.355 1.1,-2.455 2.455,-2.455 1.355,0 2.455,1.099 2.455,2.455"
     id="path1775-3" /><path
     inkscape:connector-curvature="0"
     style="fill:#ffffff"
     d="m 179.87886,6.0766733 c 0,1.355 -1.1,2.455 -2.455,2.455 -1.355,0 -2.455,-1.1 -2.455,-2.455 0,-1.355 1.1,-2.455 2.455,-2.455 1.355,0 2.455,1.099 2.455,2.455"
     id="path1775-7" /></svg>