<?xml version="1.0" encoding="UTF-8" standalone="no"?>
<!-- Generator: Adobe Illustrator 16.0.0, SVG Export Plug-In . SVG Version: 6.00 Build 0)  -->

<svg
   xmlns:dc="http://purl.org/dc/elements/1.1/"
   xmlns:cc="http://creativecommons.org/ns#"
   xmlns:rdf="http://www.w3.org/1999/02/22-rdf-syntax-ns#"
   xmlns:svg="http://www.w3.org/2000/svg"
   xmlns="http://www.w3.org/2000/svg"
   xmlns:sodipodi="http://sodipodi.sourceforge.net/DTD/sodipodi-0.dtd"
   xmlns:inkscape="http://www.inkscape.org/namespaces/inkscape"
   version="1.1"
   id="Capa_1"
   x="0px"
   y="0px"
   width="512px"
   height="512px"
   viewBox="0 0 58.25 58.25"
   style="enable-background:new 0 0 58.25 58.25;"
   xml:space="preserve"
   sodipodi:docname="applications.svg"
   inkscape:version="0.92.2 (5c3e80d, 2017-08-06)"><metadata
     id="metadata51"><rdf:RDF><cc:Work
         rdf:about=""><dc:format>image/svg+xml</dc:format><dc:type
           rdf:resource="http://purl.org/dc/dcmitype/StillImage" /><dc:title></dc:title></cc:Work></rdf:RDF></metadata><defs
     id="defs49" /><sodipodi:namedview
     pagecolor="#ffffff"
     bordercolor="#666666"
     borderopacity="1"
     objecttolerance="10"
     gridtolerance="10"
     guidetolerance="10"
     inkscape:pageopacity="0"
     inkscape:pageshadow="2"
     inkscape:window-width="726"
     inkscape:window-height="480"
     id="namedview47"
     showgrid="false"
     inkscape:zoom="4.0515021"
     inkscape:cx="29.125"
     inkscape:cy="29.125"
     inkscape:window-x="805"
     inkscape:window-y="115"
     inkscape:window-maximized="0"
     inkscape:current-layer="Capa_1" /><g
     id="g14"><g
       id="g12"><path
         d="M3,51.75h52.25c1.654,0,3-1.346,3-3V9.5c0-1.654-1.346-3-3-3H3c-1.654,0-3,1.346-3,3v39.25C0,50.404,1.346,51.75,3,51.75z     M2,9.5c0-0.551,0.449-1,1-1h52.25c0.551,0,1,0.449,1,1v39.25c0,0.551-0.449,1-1,1H3c-0.551,0-1-0.449-1-1V9.5z"
         id="path2"
         style="fill:#ff0000" /><path
         d="M7,48.25h6.258c0.033,0.003,0.063,0.02,0.096,0.02h4.23c0.034,0,0.062-0.017,0.094-0.02h4.688    c0.033,0.003,0.063,0.02,0.096,0.02h13.173c0.033,0,0.062-0.017,0.094-0.02h4.688c0.033,0.003,0.063,0.02,0.097,0.02h4.229    c0.034,0,0.062-0.017,0.094-0.02h6.412c1.653,0,3-1.346,3-3v-25.5c0-1.654-1.347-3-3-3H6.999c-1.654,0-3,1.346-3,3v25.5    C4,46.904,5.346,48.25,7,48.25z M14.083,43.111l-1.64-0.709c-0.157-0.066-0.277-0.191-0.34-0.35s-0.061-0.332,0.007-0.488    l1.166-2.703c0.135-0.312,0.515-0.472,0.839-0.332l1.639,0.707c0.438,0.189,0.947,0.043,1.218-0.349    c1.09-1.575,2.453-2.899,4.05-3.938c0.399-0.26,0.56-0.764,0.384-1.207l-0.658-1.656c-0.063-0.158-0.06-0.332,0.007-0.489    c0.068-0.157,0.192-0.278,0.351-0.341l2.734-1.086c0.327-0.131,0.702,0.038,0.829,0.357l0.661,1.664    c0.176,0.442,0.639,0.699,1.107,0.614c1.873-0.338,3.804-0.312,5.645,0.078c0.466,0.103,0.938-0.146,1.126-0.582l0.707-1.64    c0.136-0.313,0.519-0.471,0.839-0.334l2.702,1.166c0.155,0.068,0.276,0.191,0.34,0.351s0.062,0.333-0.007,0.489l-0.707,1.639    c-0.188,0.438-0.042,0.947,0.35,1.219c1.561,1.08,2.883,2.443,3.93,4.053c0.26,0.397,0.764,0.56,1.207,0.383l1.664-0.661    c0.326-0.13,0.703,0.038,0.83,0.356l1.086,2.735c0.062,0.158,0.061,0.332-0.008,0.488c-0.066,0.157-0.191,0.278-0.351,0.341    l-1.656,0.658c-0.442,0.176-0.7,0.639-0.614,1.107c0.092,0.512,0.156,1.047,0.19,1.596h-2.237c-0.1-1.234-0.377-2.438-0.834-3.584    c-1.9-4.781-6.451-7.87-11.594-7.87c-1.576,0-3.124,0.297-4.601,0.884c-4.456,1.77-7.439,5.852-7.818,10.57h-2.237    c0.046-0.689,0.138-1.364,0.275-2.014C14.763,43.77,14.52,43.299,14.083,43.111z M23.556,46.25    c0.342-1.874,1.612-3.454,3.429-4.176c0.663-0.264,1.356-0.396,2.062-0.396c2.307,0,4.346,1.385,5.197,3.527    c0.134,0.339,0.232,0.689,0.298,1.046L23.556,46.25L23.556,46.25z M6,19.75c0-0.551,0.449-1,1-1h44.25c0.551,0,1,0.449,1,1v25.5    c0,0.551-0.449,1-1,1h-5.537c-0.021-0.387-0.054-0.768-0.102-1.139l0.916-0.365c0.656-0.26,1.17-0.76,1.449-1.406    s0.291-1.365,0.029-2.02l-1.086-2.734c-0.4-1.012-1.363-1.665-2.452-1.665c-0.334,0-0.663,0.063-0.974,0.187l-0.922,0.366    c-0.947-1.312-2.065-2.464-3.338-3.442l0.392-0.905c0.278-0.647,0.29-1.364,0.028-2.021c-0.26-0.656-0.76-1.17-1.406-1.447    l-2.702-1.167c-0.333-0.143-0.685-0.216-1.044-0.216c-1.055,0-2.006,0.625-2.424,1.593l-0.391,0.906    c-1.578-0.252-3.195-0.273-4.794-0.064l-0.367-0.922c-0.401-1.011-1.364-1.666-2.452-1.666c-0.334,0-0.662,0.063-0.974,0.188    l-2.734,1.086c-0.655,0.259-1.169,0.759-1.449,1.407c-0.279,0.647-0.29,1.365-0.029,2.021l0.363,0.914    c-1.304,0.942-2.457,2.063-3.44,3.346l-0.905-0.391c-1.306-0.566-2.909,0.078-3.468,1.377l-1.166,2.701    c-0.279,0.647-0.29,1.364-0.029,2.021c0.261,0.655,0.761,1.169,1.407,1.448l0.908,0.392c-0.083,0.528-0.132,1.071-0.165,1.619    H6.999c-0.551,0-1-0.449-1-1L6,19.75L6,19.75z"
         id="path4"
         style="fill:#ff0000" /><path
         d="M34.75,13.625h18.5c0.552,0,1-0.448,1-1c0-0.552-0.448-1-1-1h-18.5c-0.552,0-1,0.448-1,1    C33.75,13.177,34.198,13.625,34.75,13.625z"
         id="path6"
         style="fill:#ff0000" /><path
         d="M13.75,13.625h3.125c0.552,0,1-0.448,1-1c0-0.552-0.448-1-1-1H13.75c-0.552,0-1,0.448-1,1    C12.75,13.177,13.198,13.625,13.75,13.625z"
         id="path8"
         style="fill:#ff0000" /><path
         d="M5.75,13.625h3.125c0.552,0,1-0.448,1-1c0-0.552-0.448-1-1-1H5.75c-0.552,0-1,0.448-1,1    C4.75,13.177,5.198,13.625,5.75,13.625z"
         id="path10"
         style="fill:#ff0000" /></g></g><g
     id="g16" /><g
     id="g18" /><g
     id="g20" /><g
     id="g22" /><g
     id="g24" /><g
     id="g26" /><g
     id="g28" /><g
     id="g30" /><g
     id="g32" /><g
     id="g34" /><g
     id="g36" /><g
     id="g38" /><g
     id="g40" /><g
     id="g42" /><g
     id="g44" /></svg>
