<?xml version="1.0" encoding="UTF-8" standalone="no"?>
<svg
   xmlns:dc="http://purl.org/dc/elements/1.1/"
   xmlns:cc="http://creativecommons.org/ns#"
   xmlns:rdf="http://www.w3.org/1999/02/22-rdf-syntax-ns#"
   xmlns:svg="http://www.w3.org/2000/svg"
   xmlns="http://www.w3.org/2000/svg"
   xmlns:sodipodi="http://sodipodi.sourceforge.net/DTD/sodipodi-0.dtd"
   xmlns:inkscape="http://www.inkscape.org/namespaces/inkscape"
   viewBox="0 0 16 16"
   width="512px"
   height="512px"
   version="1.1"
   id="svg16"
   sodipodi:docname="certificate-server.svg"
   inkscape:version="0.92.2 (5c3e80d, 2017-08-06)">
  <metadata
     id="metadata20">
    <rdf:RDF>
      <cc:Work
         rdf:about="">
        <dc:format>image/svg+xml</dc:format>
        <dc:type
           rdf:resource="http://purl.org/dc/dcmitype/StillImage" />
        <dc:title></dc:title>
      </cc:Work>
    </rdf:RDF>
  </metadata>
  <sodipodi:namedview
     pagecolor="#ffffff"
     bordercolor="#666666"
     borderopacity="1"
     objecttolerance="10"
     gridtolerance="10"
     guidetolerance="10"
     inkscape:pageopacity="0"
     inkscape:pageshadow="2"
     inkscape:window-width="726"
     inkscape:window-height="480"
     id="namedview18"
     showgrid="false"
     inkscape:zoom="14.75"
     inkscape:cx="8"
     inkscape:cy="8"
     inkscape:window-x="0"
     inkscape:window-y="0"
     inkscape:window-maximized="0"
     inkscape:current-layer="svg16" />
  <defs
     id="defs3051">
    <style
       type="text/css"
       id="current-color-scheme">
      .ColorScheme-Text {
        color:#f2f2f2;
      }
      </style>
  </defs>
  <path
     style="fill:#008000;fill-opacity:1;stroke:none"
     class="ColorScheme-Text"
     d="M 8,12.190476 A 1.5,1.5238095 0 0 0 9.5,10.666667 C 9.5,9.8209525 8.825,9.1428572 8,9.1428572 A 1.5,1.5238095 0 0 0 6.5000001,10.666667 1.5,1.5238095 0 0 0 8,12.190476 M 12.5,5.3333335 A 1.5,1.5238095 0 0 1 14,6.857143 l 0,7.619047 A 1.5,1.5238095 0 0 1 12.5,16 l -9,0 A 1.5,1.5238095 0 0 1 2,14.47619 L 2,6.857143 C 2,6.0114287 2.675,5.3333335 3.5,5.3333335 l 0.75,0 0,-1.5238097 A 3.75,3.8095238 0 0 1 8,0 3.75,3.8095238 0 0 1 11.75,3.8095238 l 0,1.5238097 0.75,0 M 8,1.5238095 A 2.25,2.2857143 0 0 0 5.75,3.8095238 l 0,1.5238097 4.5,0 0,-1.5238097 A 2.25,2.2857143 0 0 0 8,1.5238095 Z"
     id="path14" />
</svg>
