<?xml version="1.0" encoding="UTF-8" standalone="no"?>
<!-- Generator: Adobe Illustrator 18.0.0, SVG Export Plug-In . SVG Version: 6.00 Build 0)  -->

<svg
   xmlns:dc="http://purl.org/dc/elements/1.1/"
   xmlns:cc="http://creativecommons.org/ns#"
   xmlns:rdf="http://www.w3.org/1999/02/22-rdf-syntax-ns#"
   xmlns:svg="http://www.w3.org/2000/svg"
   xmlns="http://www.w3.org/2000/svg"
   xmlns:sodipodi="http://sodipodi.sourceforge.net/DTD/sodipodi-0.dtd"
   xmlns:inkscape="http://www.inkscape.org/namespaces/inkscape"
   version="1.1"
   id="Capa_1"
   x="0px"
   y="0px"
   width="512px"
   height="512px"
   viewBox="0 0 206.738 206.738"
   style="enable-background:new 0 0 206.738 206.738;"
   xml:space="preserve"
   sodipodi:docname="devices.svg"
   inkscape:version="0.92.2 (5c3e80d, 2017-08-06)"><metadata
     id="metadata43"><rdf:RDF><cc:Work
         rdf:about=""><dc:format>image/svg+xml</dc:format><dc:type
           rdf:resource="http://purl.org/dc/dcmitype/StillImage" /></cc:Work></rdf:RDF></metadata><defs
     id="defs41" /><sodipodi:namedview
     pagecolor="#ffffff"
     bordercolor="#666666"
     borderopacity="1"
     objecttolerance="10"
     gridtolerance="10"
     guidetolerance="10"
     inkscape:pageopacity="0"
     inkscape:pageshadow="2"
     inkscape:window-width="1920"
     inkscape:window-height="1034"
     id="namedview39"
     showgrid="false"
     inkscape:zoom="9.1323314"
     inkscape:cx="118.26141"
     inkscape:cy="174.22436"
     inkscape:window-x="0"
     inkscape:window-y="0"
     inkscape:window-maximized="1"
     inkscape:current-layer="Capa_1" /><g
     id="g6"><path
       d="M135.326,63.912H71.413c-4.143,0-7.5,3.357-7.5,7.5v63.914c0,4.143,3.358,7.5,7.5,7.5h63.913c4.143,0,7.5-3.357,7.5-7.5   V71.412C142.826,67.27,139.469,63.912,135.326,63.912z M127.826,127.826H78.913V78.912h48.913V127.826z"
       id="path2"
       style="fill:#ff0000" /><path
       d="M199.238,110.869c4.143,0,7.5-3.357,7.5-7.5s-3.357-7.5-7.5-7.5h-24.455V78.912h24.455c4.143,0,7.5-3.357,7.5-7.5   c0-4.143-3.357-7.5-7.5-7.5h-24.455V39.455c0-4.143-3.357-7.5-7.5-7.5h-24.457V7.5c0-4.143-3.357-7.5-7.5-7.5   c-4.143,0-7.5,3.357-7.5,7.5v24.455h-16.957V7.5c0-4.143-3.357-7.5-7.5-7.5s-7.5,3.357-7.5,7.5v24.455H78.913V7.5   c0-4.143-3.357-7.5-7.5-7.5c-4.143,0-7.5,3.357-7.5,7.5v24.455H39.456c-4.143,0-7.5,3.358-7.5,7.5v24.457H7.5   c-4.143,0-7.5,3.357-7.5,7.5c0,4.143,3.357,7.5,7.5,7.5h24.456v16.957H7.5c-4.143,0-7.5,3.357-7.5,7.5s3.357,7.5,7.5,7.5h24.456   v16.957H7.5c-4.143,0-7.5,3.357-7.5,7.5c0,4.143,3.357,7.5,7.5,7.5h24.456v24.457c0,4.143,3.357,7.5,7.5,7.5h24.457v24.455   c0,4.143,3.358,7.5,7.5,7.5c4.143,0,7.5-3.357,7.5-7.5v-24.455h16.956v24.455c0,4.143,3.357,7.5,7.5,7.5s7.5-3.357,7.5-7.5v-24.455   h16.957v24.455c0,4.143,3.357,7.5,7.5,7.5c4.143,0,7.5-3.357,7.5-7.5v-24.455h24.457c4.143,0,7.5-3.357,7.5-7.5v-24.457h24.455   c4.143,0,7.5-3.357,7.5-7.5c0-4.143-3.357-7.5-7.5-7.5h-24.455v-16.957H199.238z M159.783,159.783H46.956V46.955h112.827V159.783z"
       id="path4"
       style="fill:#ff0000" /></g><g
     id="g8" /><g
     id="g10" /><g
     id="g12" /><g
     id="g14" /><g
     id="g16" /><g
     id="g18" /><g
     id="g20" /><g
     id="g22" /><g
     id="g24" /><g
     id="g26" /><g
     id="g28" /><g
     id="g30" /><g
     id="g32" /><g
     id="g34" /><g
     id="g36" /></svg>
