<?xml version="1.0" encoding="UTF-8" standalone="no"?>
<svg
   xmlns:dc="http://purl.org/dc/elements/1.1/"
   xmlns:cc="http://creativecommons.org/ns#"
   xmlns:rdf="http://www.w3.org/1999/02/22-rdf-syntax-ns#"
   xmlns:svg="http://www.w3.org/2000/svg"
   xmlns="http://www.w3.org/2000/svg"
   xmlns:sodipodi="http://sodipodi.sourceforge.net/DTD/sodipodi-0.dtd"
   xmlns:inkscape="http://www.inkscape.org/namespaces/inkscape"
   width="512px"
   height="512px"
   version="1.1"
   viewBox="0 0 16 16"

   id="svg9"
   sodipodi:docname="keyboard.svg"
   inkscape:version="0.92.2 (5c3e80d, 2017-08-06)">
  <metadata
     id="metadata13">
    <rdf:RDF>
      <cc:Work
         rdf:about="">
        <dc:format>image/svg+xml</dc:format>
        <dc:type
           rdf:resource="http://purl.org/dc/dcmitype/StillImage" />
        <dc:title />
      </cc:Work>
    </rdf:RDF>
  </metadata>
  <sodipodi:namedview
     pagecolor="#ffffff"
     bordercolor="#666666"
     borderopacity="1"
     objecttolerance="10"
     gridtolerance="10"
     guidetolerance="10"
     inkscape:pageopacity="0"
     inkscape:pageshadow="2"
     inkscape:window-width="1920"
     inkscape:window-height="1034"
     id="namedview11"
     showgrid="false"
     inkscape:zoom="14.75"
     inkscape:cx="-3.2542373"
     inkscape:cy="8"
     inkscape:window-x="0"
     inkscape:window-y="0"
     inkscape:window-maximized="1"
     inkscape:current-layer="svg9" />
  <defs
     id="defs4" />
  <g
     fill="none"
     fill-rule="evenodd"
     id="Icons with numbers"
     stroke="none"
     stroke-width="1">
    <g
       fill="#000000"
       id="Group"
       transform="translate(-672.000000, -336.000000)">
      <path
         d="M673.000872,339 C672.448106,339 672,339.455664 672,339.995398 L672,348.004602 C672,348.554345 672.444631,349 673.000872,349 L686.999128,349 C687.551894,349 688,348.544336 688,348.004602 L688,339.995398 C688,339.445655 687.555369,339 686.999128,339 L673.000872,339 Z M686,342 L686,344 L687,344 L687,342 L686,342 Z M684,341 L684,342 L685,342 L685,341 L684,341 Z M684,343 L684,344 L685,344 L685,343 L684,343 Z M683,345 L683,346 L684,346 L684,345 L683,345 Z M681,345 L681,346 L682,346 L682,345 L681,345 Z M675,347 L675,348 L676,348 L676,347 L675,347 Z M673,347 L673,348 L674,348 L674,347 L673,347 Z M686,347 L686,348 L687,348 L687,347 L686,347 Z M684,347 L684,348 L685,348 L685,347 L684,347 Z M682,341 L682,342 L683,342 L683,341 L682,341 Z M680,341 L680,342 L681,342 L681,341 L680,341 Z M678,341 L678,342 L679,342 L679,341 L678,341 Z M676,341 L676,342 L677,342 L677,341 L676,341 Z M682,343 L682,344 L683,344 L683,343 L682,343 Z M680,343 L680,344 L681,344 L681,343 L680,343 Z M678,343 L678,344 L679,344 L679,343 L678,343 Z M676,343 L676,344 L677,344 L677,343 L676,343 Z M679,345 L679,346 L680,346 L680,345 L679,345 Z M677,345 L677,346 L678,346 L678,345 L677,345 Z M675,345 L675,346 L676,346 L676,345 L675,345 Z M673,345 L673,346 L674,346 L674,345 L673,345 Z M677,347 L677,348 L683,348 L683,347 L677,347 Z M685,345 L685,346 L687,346 L687,345 L685,345 Z M673,343 L673,344 L675,344 L675,343 L673,343 Z M673,341 L673,342 L675,342 L675,341 L673,341 Z M673,341"
         id="Rectangle 297"
         style="fill:#ffd42a" />
    </g>
  </g>
</svg>
