<?xml version="1.0" encoding="UTF-8" standalone="no"?>
<!-- Generator: Adobe Illustrator 19.0.0, SVG Export Plug-In . SVG Version: 6.00 Build 0)  -->

<svg
   xmlns:dc="http://purl.org/dc/elements/1.1/"
   xmlns:cc="http://creativecommons.org/ns#"
   xmlns:rdf="http://www.w3.org/1999/02/22-rdf-syntax-ns#"
   xmlns:svg="http://www.w3.org/2000/svg"
   xmlns="http://www.w3.org/2000/svg"
   xmlns:sodipodi="http://sodipodi.sourceforge.net/DTD/sodipodi-0.dtd"
   xmlns:inkscape="http://www.inkscape.org/namespaces/inkscape"
   version="1.1"
   id="Layer_1"
   x="0px"
   y="0px"
   width="512px"
   height="512px"
   viewBox="0 0 512 512"
   style="enable-background:new 0 0 512 512;"
   xml:space="preserve"
   sodipodi:docname="menu.svg"
   inkscape:version="0.92.2 (5c3e80d, 2017-08-06)"><metadata
     id="metadata55"><rdf:RDF><cc:Work
         rdf:about=""><dc:format>image/svg+xml</dc:format><dc:type
           rdf:resource="http://purl.org/dc/dcmitype/StillImage" /><dc:title></dc:title></cc:Work></rdf:RDF></metadata><defs
     id="defs53" /><sodipodi:namedview
     pagecolor="#ffffff"
     bordercolor="#666666"
     borderopacity="1"
     objecttolerance="10"
     gridtolerance="10"
     guidetolerance="10"
     inkscape:pageopacity="0"
     inkscape:pageshadow="2"
     inkscape:window-width="726"
     inkscape:window-height="480"
     id="namedview51"
     showgrid="false"
     inkscape:zoom="0.4609375"
     inkscape:cx="256"
     inkscape:cy="256"
     inkscape:window-x="0"
     inkscape:window-y="0"
     inkscape:window-maximized="0"
     inkscape:current-layer="Layer_1" /><path
     style="fill:#FFC61B;"
     d="M496.641,426.9H155.694c-8.483,0-15.359-6.878-15.359-15.359v-58.362  c0-8.481,6.876-15.359,15.359-15.359h187.359c8.483,0,15.359,6.878,15.359,15.359s-6.876,15.359-15.359,15.359h-172v27.644h310.23  v-27.644h-46.076c-8.483,0-15.359-6.878-15.359-15.359s6.876-15.359,15.359-15.359h61.435c8.483,0,15.359,6.878,15.359,15.359  v58.362C512,420.024,505.124,426.9,496.641,426.9z"
     id="path2" /><rect
     x="155.692"
     y="225.145"
     style="fill:#FEE187;"
     width="340.95"
     height="58.36"
     id="rect4" /><path
     style="fill:#FFC61B;"
     d="M496.641,298.858H155.694c-8.483,0-15.359-6.878-15.359-15.359v-58.36  c0-8.481,6.876-15.359,15.359-15.359h340.947c8.483,0,15.359,6.878,15.359,15.359v58.36C512,291.98,505.124,298.858,496.641,298.858  z M171.053,268.14h310.23v-27.643h-310.23V268.14z"
     id="path6" /><rect
     x="155.692"
     y="100.462"
     style="fill:#FEE187;"
     width="340.95"
     height="58.36"
     id="rect8" /><g
     id="g18"><path
       style="fill:#FFC61B;"
       d="M496.641,174.18H155.694c-8.483,0-15.359-6.878-15.359-15.359v-58.362   c0-8.481,6.876-15.359,15.359-15.359h340.947c8.483,0,15.359,6.878,15.359,15.359v58.362   C512,167.304,505.124,174.18,496.641,174.18z M171.053,143.462h310.23v-27.644h-310.23V143.462z"
       id="path10" /><path
       style="fill:#FFC61B;"
       d="M81.385,174.18H15.359C6.876,174.18,0,167.302,0,158.821v-58.362C0,91.978,6.876,85.1,15.359,85.1   h66.026c8.483,0,15.359,6.878,15.359,15.359v58.362C96.744,167.304,89.868,174.18,81.385,174.18z M30.718,143.462h35.308v-27.644   H30.718V143.462z"
       id="path12" /><path
       style="fill:#FFC61B;"
       d="M81.385,298.858H15.359C6.876,298.858,0,291.98,0,283.499v-58.36   c0-8.481,6.876-15.359,15.359-15.359h66.026c8.483,0,15.359,6.878,15.359,15.359v58.36   C96.744,291.98,89.868,298.858,81.385,298.858z M30.718,268.14h35.308v-27.643H30.718V268.14z"
       id="path14" /><path
       style="fill:#FFC61B;"
       d="M81.385,426.9H15.359C6.876,426.9,0,420.022,0,411.541v-58.362c0-8.481,6.876-15.359,15.359-15.359   h66.026c8.483,0,15.359,6.878,15.359,15.359v58.362C96.744,420.024,89.868,426.9,81.385,426.9z M30.718,396.182h35.308v-27.644   H30.718V396.182z"
       id="path16" /></g><g
     id="g20" /><g
     id="g22" /><g
     id="g24" /><g
     id="g26" /><g
     id="g28" /><g
     id="g30" /><g
     id="g32" /><g
     id="g34" /><g
     id="g36" /><g
     id="g38" /><g
     id="g40" /><g
     id="g42" /><g
     id="g44" /><g
     id="g46" /><g
     id="g48" /></svg>
