<?xml version="1.0" encoding="UTF-8" standalone="no"?>
<!-- Generator: Adobe Illustrator 16.0.0, SVG Export Plug-In . SVG Version: 6.00 Build 0)  -->

<svg
   xmlns:dc="http://purl.org/dc/elements/1.1/"
   xmlns:cc="http://creativecommons.org/ns#"
   xmlns:rdf="http://www.w3.org/1999/02/22-rdf-syntax-ns#"
   xmlns:svg="http://www.w3.org/2000/svg"
   xmlns="http://www.w3.org/2000/svg"
   xmlns:sodipodi="http://sodipodi.sourceforge.net/DTD/sodipodi-0.dtd"
   xmlns:inkscape="http://www.inkscape.org/namespaces/inkscape"
   version="1.1"
   id="Capa_1"
   x="0px"
   y="0px"
   width="512px"
   height="512px"
   viewBox="0 0 83.816 83.816"
   style="enable-background:new 0 0 83.816 83.816;"
   xml:space="preserve"
   sodipodi:docname="sysadm.svg"
   inkscape:version="0.92.2 (5c3e80d, 2017-08-06)"><metadata
     id="metadata55"><rdf:RDF><cc:Work
         rdf:about=""><dc:format>image/svg+xml</dc:format><dc:type
           rdf:resource="http://purl.org/dc/dcmitype/StillImage" /><dc:title></dc:title></cc:Work></rdf:RDF></metadata><defs
     id="defs53" /><sodipodi:namedview
     pagecolor="#ffffff"
     bordercolor="#666666"
     borderopacity="1"
     objecttolerance="10"
     gridtolerance="10"
     guidetolerance="10"
     inkscape:pageopacity="0"
     inkscape:pageshadow="2"
     inkscape:window-width="1920"
     inkscape:window-height="1034"
     id="namedview51"
     showgrid="false"
     inkscape:zoom="2.8156915"
     inkscape:cx="41.908001"
     inkscape:cy="41.908001"
     inkscape:window-x="0"
     inkscape:window-y="0"
     inkscape:window-maximized="1"
     inkscape:current-layer="Capa_1" /><g
     id="g18"
     style="fill:#000000"><g
       id="g16"
       style="fill:#000000"><polygon
         points="41.897,33.282 32.897,33.282 23.897,33.282 23.897,45.727 32.897,45.727 41.897,45.727   "
         id="polygon2"
         style="fill:#000000" /><polygon
         points="13.897,47.727 13.897,60.171 31.897,60.171 31.897,47.727 22.897,47.727   "
         id="polygon4"
         style="fill:#000000" /><path
         d="M51.896,31.282V18.837h-18v12.444h9L51.896,31.282L51.896,31.282z M48.146,20.587c0-0.552,0.447-1,1-1    c0.554,0,1,0.448,1,1v7.25c0,0.552-0.446,1-1,1c-0.553,0-1-0.448-1-1V20.587z"
         id="path6"
         style="fill:#000000" /><path
         d="M61.896,33.282h-9h-9v12.445h9h9V33.282z M60.146,42.087c0,0.552-0.446,1-1,1c-0.553,0-1-0.448-1-1v-7.25    c0-0.552,0.447-1,1-1c0.554,0,1,0.448,1,1V42.087z"
         id="path8"
         style="fill:#000000" /><path
         d="M53.896,47.727v12.444h18V47.727h-9H53.896z M68.396,48.934c0-0.553,0.447-1,1-1c0.554,0,1,0.447,1,1v6.653    c0,0.552-0.446,1-1,1c-0.553,0-1-0.448-1-1V48.934z"
         id="path10"
         style="fill:#000000" /><polygon
         points="33.897,47.727 33.897,60.171 51.896,60.171 51.896,47.727 42.897,47.727   "
         id="polygon12"
         style="fill:#000000" /><path
         d="M41.908,0C18.762,0,0,18.763,0,41.909c0,23.146,18.763,41.908,41.908,41.908c23.145,0,41.908-18.762,41.908-41.908    C83.816,18.763,65.053,0,41.908,0z M73.896,46.727v14.444c0,0.552-0.446,1-1,1h-20h-20h-20c-0.553,0-1-0.448-1-1V46.727    c0-0.552,0.447-1,1-1h9V32.282c0-0.552,0.447-1,1-1h9V17.837c0-0.552,0.447-1,1-1h20c0.554,0,1,0.448,1,1v13.444h9    c0.554,0,1,0.448,1,1v13.446h9C73.45,45.727,73.896,46.174,73.896,46.727z"
         id="path14"
         style="fill:#000000" /></g></g><g
     id="g20" /><g
     id="g22" /><g
     id="g24" /><g
     id="g26" /><g
     id="g28" /><g
     id="g30" /><g
     id="g32" /><g
     id="g34" /><g
     id="g36" /><g
     id="g38" /><g
     id="g40" /><g
     id="g42" /><g
     id="g44" /><g
     id="g46" /><g
     id="g48" /><path
     style="fill:#ff0000;stroke-width:0.35515255"
     d="m 43.683764,39.528479 v -6.21517 h 9.233966 9.233966 v 6.21517 6.215169 H 52.91773 43.683764 Z m 16.159441,-1.070322 c 0,-4.020198 -0.03951,-4.256966 -0.710305,-4.256966 -0.660818,0 -0.717375,0.270592 -0.811778,3.883854 -0.113117,4.329515 -6.75e-4,4.923334 0.899492,4.749979 0.552056,-0.106316 0.622591,-0.602181 0.622591,-4.376867 z"
     id="path862"
     inkscape:connector-curvature="0" /><path
     style="fill:#ff0000;stroke-width:0.35515255"
     d="M 33.976261,31.300778 C 33.846038,31.170556 33.739492,28.29382 33.739492,24.908032 v -6.155977 h 9.05639 9.05639 v 6.392746 6.392745 h -8.819621 c -4.850792,0 -8.926168,-0.106545 -9.05639,-0.236768 z m 15.922672,-7.048723 c 0,-4.144237 -0.02116,-4.259972 -0.799093,-4.370456 -0.790289,-0.112239 -0.799093,-0.06692 -0.799093,4.11385 0,2.325038 0.11207,4.339411 0.249046,4.476386 0.136975,0.136975 0.496567,0.201378 0.799093,0.143117 0.460143,-0.08862 0.550047,-0.801722 0.550047,-4.362897 z"
     id="path864"
     inkscape:connector-curvature="0" /><path
     style="fill:#ff0000;stroke-width:0.35515255"
     d="m 23.795221,39.528479 v -6.21517 h 9.05639 9.05639 v 6.21517 6.215169 h -9.05639 -9.05639 z"
     id="path866"
     inkscape:connector-curvature="0" /><path
     style="fill:#ff0000;stroke-width:0.35515255"
     d="m 13.850949,53.912157 v -6.392746 h 9.056391 9.05639 v 6.392746 6.392746 h -9.05639 -9.056391 z"
     id="path868"
     inkscape:connector-curvature="0" /><path
     style="fill:#ff0000;stroke-width:0.35515255"
     d="m 33.820085,54.000945 0.09698,-6.303957 8.967601,-0.09489 8.967602,-0.09489 v 6.398844 6.398844 h -9.064584 -9.064586 z"
     id="path870"
     inkscape:connector-curvature="0" /><path
     style="fill:#ff0000;stroke-width:0.35515255"
     d="m 53.983188,53.906059 v -6.398844 l 8.967602,0.09489 8.967601,0.09489 0.09698,6.303957 0.09698,6.303958 h -9.064586 -9.064584 z m 16.261061,-1.366825 c 0.103499,-3.740992 -0.185745,-4.814523 -1.193044,-4.427986 -0.395333,0.151703 -0.506763,1.032119 -0.506763,4.003952 0,2.095219 0.112071,3.921559 0.249046,4.058534 0.136975,0.136975 0.496567,0.201692 0.799093,0.143816 0.446319,-0.08539 0.569211,-0.797906 0.651668,-3.778316 z"
     id="path872"
     inkscape:connector-curvature="0" /></svg>
