<?xml version="1.0" encoding="UTF-8" standalone="no"?>
<!-- Generator: Adobe Illustrator 16.0.0, SVG Export Plug-In . SVG Version: 6.00 Build 0)  -->

<svg
   xmlns:dc="http://purl.org/dc/elements/1.1/"
   xmlns:cc="http://creativecommons.org/ns#"
   xmlns:rdf="http://www.w3.org/1999/02/22-rdf-syntax-ns#"
   xmlns:svg="http://www.w3.org/2000/svg"
   xmlns="http://www.w3.org/2000/svg"
   xmlns:sodipodi="http://sodipodi.sourceforge.net/DTD/sodipodi-0.dtd"
   xmlns:inkscape="http://www.inkscape.org/namespaces/inkscape"
   version="1.1"
   id="Capa_1"
   x="0px"
   y="0px"
   width="512px"
   height="512px"
   viewBox="0 0 612 612"
   style="enable-background:new 0 0 612 612;"
   xml:space="preserve"
   sodipodi:docname="tools.svg"
   inkscape:version="0.92.2 (5c3e80d, 2017-08-06)"><metadata
     id="metadata44"><rdf:RDF><cc:Work
         rdf:about=""><dc:format>image/svg+xml</dc:format><dc:type
           rdf:resource="http://purl.org/dc/dcmitype/StillImage" /><dc:title></dc:title></cc:Work></rdf:RDF></metadata><defs
     id="defs42" /><sodipodi:namedview
     pagecolor="#ffffff"
     bordercolor="#666666"
     borderopacity="1"
     objecttolerance="10"
     gridtolerance="10"
     guidetolerance="10"
     inkscape:pageopacity="0"
     inkscape:pageshadow="2"
     inkscape:window-width="726"
     inkscape:window-height="480"
     id="namedview40"
     showgrid="false"
     inkscape:zoom="0.38562092"
     inkscape:cx="306"
     inkscape:cy="306"
     inkscape:window-x="0"
     inkscape:window-y="0"
     inkscape:window-maximized="0"
     inkscape:current-layer="Capa_1" /><g
     id="g7"><g
       id="EQ"><g
         id="g4"><path
           d="M129.818,124.495V74.181c0-15.374-12.444-27.818-27.818-27.818S74.182,58.807,74.182,74.181v50.314     C31.435,136.643,0,175.959,0,222.545c0,46.586,31.435,85.902,74.182,98.051v217.223c0,15.355,12.444,27.818,27.818,27.818     s27.818-12.463,27.818-27.818V320.596C172.565,308.447,204,269.15,204,222.545C204,175.959,172.565,136.643,129.818,124.495z      M102,268.909c-25.556,0-46.364-20.808-46.364-46.364S76.444,176.181,102,176.181s46.364,20.808,46.364,46.364     S127.556,268.909,102,268.909z M333.818,291.404V74.181c0-15.374-12.444-27.818-27.818-27.818s-27.818,12.444-27.818,27.818     v217.223C235.435,303.551,204,342.867,204,389.453c0,46.588,31.435,85.904,74.182,98.051v50.314     c0,15.355,12.444,27.818,27.818,27.818s27.818-12.463,27.818-27.818v-50.314C376.565,475.357,408,436.041,408,389.453     C408,342.867,376.565,303.551,333.818,291.404z M306,435.818c-25.556,0-46.364-20.791-46.364-46.365     c0-25.572,20.808-46.363,46.364-46.363s46.363,20.791,46.363,46.363C352.363,415.027,331.556,435.818,306,435.818z      M537.818,124.495V74.181c0-15.374-12.444-27.818-27.818-27.818s-27.818,12.444-27.818,27.818v50.314     C439.435,136.643,408,175.94,408,222.545c0,46.586,31.435,85.902,74.182,98.051v217.223c0,15.355,12.444,27.818,27.818,27.818     s27.818-12.463,27.818-27.818V320.596C580.565,308.447,612,269.15,612,222.545C612,175.959,580.565,136.643,537.818,124.495z      M510,268.909c-25.556,0-46.363-20.808-46.363-46.364s20.808-46.364,46.363-46.364s46.363,20.808,46.363,46.364     S535.556,268.909,510,268.909z"
           id="path2"
           style="fill:#d40000" /></g></g></g><g
     id="g9" /><g
     id="g11" /><g
     id="g13" /><g
     id="g15" /><g
     id="g17" /><g
     id="g19" /><g
     id="g21" /><g
     id="g23" /><g
     id="g25" /><g
     id="g27" /><g
     id="g29" /><g
     id="g31" /><g
     id="g33" /><g
     id="g35" /><g
     id="g37" /></svg>
