<?xml version="1.0" encoding="UTF-8" standalone="no"?>
<svg
   xmlns:dc="http://purl.org/dc/elements/1.1/"
   xmlns:cc="http://creativecommons.org/ns#"
   xmlns:rdf="http://www.w3.org/1999/02/22-rdf-syntax-ns#"
   xmlns:svg="http://www.w3.org/2000/svg"
   xmlns="http://www.w3.org/2000/svg"
   xmlns:xlink="http://www.w3.org/1999/xlink"
   xmlns:sodipodi="http://sodipodi.sourceforge.net/DTD/sodipodi-0.dtd"
   xmlns:inkscape="http://www.inkscape.org/namespaces/inkscape"
   viewBox="0 0 32 32"
   id="svg2"
   version="1.1"
   inkscape:version="0.91 r13725"
   sodipodi:docname="system-switch-user.svg">
  <metadata
     id="metadata10">
    <rdf:RDF>
      <cc:Work
         rdf:about="">
        <dc:format>image/svg+xml</dc:format>
        <dc:type
           rdf:resource="http://purl.org/dc/dcmitype/StillImage" />
        <dc:title />
      </cc:Work>
    </rdf:RDF>
  </metadata>
  <sodipodi:namedview
     pagecolor="#ffffff"
     bordercolor="#666666"
     borderopacity="1"
     objecttolerance="10"
     gridtolerance="10"
     guidetolerance="10"
     inkscape:pageopacity="0"
     inkscape:pageshadow="2"
     inkscape:window-width="1366"
     inkscape:window-height="703"
     id="namedview8"
     showgrid="false"
     showguides="true"
     inkscape:guide-bbox="true"
     inkscape:zoom="7.375"
     inkscape:cx="-6.5762712"
     inkscape:cy="16"
     inkscape:window-x="0"
     inkscape:window-y="0"
     inkscape:window-maximized="1"
     inkscape:current-layer="svg2" />
  <defs
     id="defs3051">
    <linearGradient
       inkscape:collect="always"
       id="linearGradient4138">
      <stop
         style="stop-color:#ffff00;stop-opacity:1"
         offset="0"
         id="stop4140" />
      <stop
         style="stop-color:#d45500;stop-opacity:1"
         offset="1"
         id="stop4142" />
    </linearGradient>
    <style
       type="text/css"
       id="current-color-scheme">
      .ColorScheme-Text {
        color:#f2f2f2;
      }
      </style>
    <linearGradient
       inkscape:collect="always"
       xlink:href="#linearGradient4138"
       id="linearGradient4144"
       x1="15.593221"
       y1="0.94915259"
       x2="34.983051"
       y2="9.2203388"
       gradientUnits="userSpaceOnUse" />
  </defs>
  <path
     style="fill:url(#linearGradient4144);fill-opacity:1;stroke:none"
     d="m 22,4 -4,4 -1,1 5,5 0.707031,-0.70703 L 18.914062,9.5 28,9.5 28,8.46875 18.914062,8.49995 22.707031,4.70698 22,4 Z M 11.5,9 C 9.014719,9 7,11.01472 7,13.5 7,15.98528 9.014719,18 11.5,18 13.985281,18 16,15.98528 16,13.5 16,11.01472 13.985281,9 11.5,9 Z m 0,1 C 13.432997,10 15,11.567 15,13.5 15,15.433 13.432997,17 11.5,17 9.567003,17 8,15.433 8,13.5 8,11.567 9.567003,10 11.5,10 Z m 0,9 C 7.357864,19 4,22.58172 4,27 l 0,1 15,0 0,-1 c 0,-4.41828 -3.357864,-8 -7.5,-8 z m 0,1 c 3.589851,0 6.5,3.13401 6.5,7 L 5,27 c 0,-3.86599 2.910149,-7 6.5,-7 z"
     class="ColorScheme-Text"
     id="path6" />
</svg>
